********************************************************************************

The Pirates Band of Misfits 2012 1080p BluRay 3D H-SBS x264 2Audio - alrmothe

********************************************************************************

Animation | Adventure | Comedy 
 
http://www.imdb.com/title/tt1430626/

Source.....The Pirates Band of Misfits 2012 Blu-ray Disc 
Format..............Matroska
File size........... 6.61 GiB
Duration............1h 28mn

Overall bit rate...... 10.8 Mbps
Encoder.............alrmothe

*********************************************************************************

Video
Format: AVC
Format/Info : Advanced Video Codec
Format profile: High@L5.1
Format settings, CABAC: Yes
Format settings, ReFrames: 2 frames
Muxing mode: Header stripping
Codec ID: V_MPEG4/ISO/AVC
Bit rate: 8 387 Kbps
Width: 1920 pixels
Height: 1080pixels
Frame rate mode: Constant
Frame rate: 23.976 fps
Color space: YUV
Chroma subsampling: 4:2:0
Bit depth: 8 bits
Scan type: Progressive
Bits/(Pixel*Frame): 0.169
Stream size: 5.16 GiB (78%)



Audio #1
Format : DTS
Format/Info : Digital Theater Systems
Mode : 16
Format settings, Endianness : Big
Muxing mode : Header stripping
Codec ID : A_DTS
Duration : 1h 28mn
Bit rate mode : Constant
Bit rate : 1509 Kbps
Channel(s) : 6 channels
Channel positions : Front: L C R, Side: L R, LFE
Sampling rate  : 48.0 KHz
Bit depth  : 24 bits
Compression mode : Lossy
Stream size  : 951 GiB (14%)
Language : English


Audio #2
ID  : 3
Format: AC-3
Format/Info : Audio Coding 3
Mode extension: CM (complete main)
Format settings, Endianness: Big
Muxing mode : Header stripping
Codec ID : A_AC3
Duration: 1h 28mn
Bit rate mode: Constant
Bit rate : 640 Kbps
Channel(s): 6 channels
Channel positions: Front: L C R, Side: L R, LFE
Sampling rate: 48.0 KHz
Bit depth: 16 bits
Compression mode: Lossy
Stream size: 403 MiB (6%)
Title : AC3 640
Language : Arabic
Default : No
Forced: No

SUB:NON


Screenshots 
http://img4.imageshack.us/img4/2919/77889409.png 
http://img22.imageshack.us/img22/1382/59776408.png 
http://img254.imageshack.us/img254/8480/45263807.png 
http://img593.imageshack.us/img593/1728/thepiratesbandofmisfitse.jpg
